<svg xmlns="http://www.w3.org/2000/svg" width="58.562" height="58.562" viewBox="0 0 58.562 58.562">
  <path id="icons8-facebook" d="M12.262,1A11.3,11.3,0,0,0,1,12.262V48.3A11.3,11.3,0,0,0,12.262,59.562H48.3A11.3,11.3,0,0,0,59.562,48.3V12.262A11.3,11.3,0,0,0,48.3,1Zm0,4.5H48.3a6.72,6.72,0,0,1,6.757,6.757V48.3A6.72,6.72,0,0,1,48.3,55.057H41.112V36.888H47.4l.941-7.25H41.112V25.019c0-2.1.584-3.528,3.616-3.528H48.6V15.007a52.135,52.135,0,0,0-5.639-.282c-5.577,0-9.388,3.374-9.388,9.573v5.341l-5.543-.018v7.25l5.543.018V55.057H12.262A6.72,6.72,0,0,1,5.5,48.3V12.262A6.719,6.719,0,0,1,12.262,5.5Z" transform="translate(-1 -1)" fill="#fff"/>
</svg>
