<svg xmlns="http://www.w3.org/2000/svg" width="58.561" height="58.561" viewBox="0 0 58.561 58.561">
  <path id="icons8-instagram" d="M18,1A17.032,17.032,0,0,0,1,18V42.581A17.029,17.029,0,0,0,18,59.561H42.581a17.029,17.029,0,0,0,16.981-17V18a17.032,17.032,0,0,0-17-17Zm0,4.5H42.563A12.452,12.452,0,0,1,55.057,18V42.563A12.448,12.448,0,0,1,42.581,55.057H18A12.448,12.448,0,0,1,5.5,42.581V18A12.452,12.452,0,0,1,18,5.5Zm30.3,4.5a2.252,2.252,0,1,0,2.252,2.252A2.246,2.246,0,0,0,48.3,10.009Zm-18.019,4.5A15.767,15.767,0,1,0,46.047,30.281,15.808,15.808,0,0,0,30.281,14.514Zm0,4.5A11.262,11.262,0,1,1,19.019,30.281,11.227,11.227,0,0,1,30.281,19.019Z" transform="translate(-1 -1)" fill="#fff"/>
</svg>
