<svg xmlns="http://www.w3.org/2000/svg" width="58.562" height="46.013" viewBox="0 0 58.562 46.013">
  <path id="icons8-twitter" d="M59.562,7.425A22.2,22.2,0,0,1,52.732,9.3a12.59,12.59,0,0,0,5.359-6.356,22.78,22.78,0,0,1-7.549,2.827A13.049,13.049,0,0,0,41.506,2,11.794,11.794,0,0,0,29.545,13.569a8.625,8.625,0,0,0,.245,2.6C17.209,16.167,8.582,9.075,2.732,2A9.853,9.853,0,0,0,1.016,7.9a11.773,11.773,0,0,0,5.376,9.673,17.739,17.739,0,0,1-5.376-1.405V16.4a11.544,11.544,0,0,0,9.526,11.323,13.2,13.2,0,0,1-3.186.474,7.2,7.2,0,0,1-2.19-.229c1.471,4.722,8.284,10.147,13.644,10.147C14.66,41.166,10.8,43.83,3.091,43.83H1c5.359,3.3,11.716,4.183,18.3,4.183,22.206,0,34.166-17.7,34.166-33.039V13.569a24.74,24.74,0,0,0,6.095-6.144" transform="translate(-1 -2)" fill="#fff"/>
</svg>
